<svg width="25" height="25" viewBox="0 0 25 25" fill="none" xmlns="http://www.w3.org/2000/svg">
<path fill-rule="evenodd" clip-rule="evenodd" d="M0.292965 22.2928C-0.0975985 22.6833 -0.0976617 23.3165 0.292824 23.707C0.683309 24.0976 1.31647 24.0977 1.70704 23.7072L11.813 13.6033L22.2969 24.085C22.6874 24.4755 23.3206 24.4754 23.7111 24.0848C24.1016 23.6943 24.1015 23.0611 23.7109 22.6706L13.416 12.3778L23.7109 2.085C24.1015 1.69451 24.1016 1.06135 23.7111 0.670783C23.3206 0.280217 22.6874 0.280151 22.2969 0.670634L12.1908 10.7745L1.70704 0.292822C1.31647 -0.0976622 0.683308 -0.0975992 0.292823 0.292963C-0.0976627 0.683527 -0.0975995 1.31669 0.292964 1.70718L10.5878 12L0.292965 22.2928Z" fill="black"/>
</svg>
