<svg width="161" height="49" viewBox="0 0 161 49" fill="none" xmlns="http://www.w3.org/2000/svg">
<path fill-rule="evenodd" clip-rule="evenodd" d="M39.4502 28.3657C37.0699 29.2092 34.3817 28.6035 32.5981 26.8198L29.9007 24.1255L31.3917 22.6346H32.0187C34.9427 22.6346 37.6726 21.2168 39.375 18.9219L44.5786 24.1265L41.8853 26.8198C41.1891 27.517 40.3679 28.0374 39.4502 28.3657ZM34.777 38.5922C33.7942 38.5922 32.847 38.3798 31.9648 37.96C29.6831 36.8766 28.2074 34.5462 28.2074 32.0226V28.2134H30.3214L30.7635 28.6545C32.5055 30.3975 34.8674 31.3345 37.267 31.3345C37.7071 31.3345 38.1482 31.2959 38.5862 31.2319V38.5922H34.777ZM21.4285 41.8863C20.7333 41.1912 20.216 40.373 19.8907 39.4522C19.0421 37.075 19.6458 34.3858 21.4285 32.5991L24.1218 29.9058L25.6137 31.3967V32.0228C25.6137 34.9407 27.0295 37.6696 29.3254 39.38L24.1228 44.5827L21.4285 41.8863ZM9.65729 34.7809C9.65729 33.7961 9.87072 32.8519 10.2945 31.9677C11.3729 29.6871 13.7013 28.2134 16.2249 28.2134H20.0351V30.3223L19.593 30.7644C17.5308 32.8316 16.6039 35.7627 17.0196 38.5922H9.65729V34.7809ZM6.36236 21.4333C7.0616 20.7331 7.87975 20.2147 8.79445 19.8915C11.1757 19.0439 13.866 19.6496 15.6496 21.4343L18.3429 24.1266L16.852 25.6186H16.2249C13.3049 25.6186 10.5771 27.0343 8.87068 29.3282L3.66907 24.1266L6.36236 21.4333ZM13.4706 9.66211C14.4544 9.66211 15.4006 9.87452 16.2828 10.2933C18.5624 11.3767 20.0351 13.7071 20.0351 16.2307V20.0399H17.9252L17.4851 19.5988C15.4209 17.5357 12.4898 16.6067 9.65729 17.0214V9.66211H13.4706ZM24.1217 3.66992L26.8191 6.36626C27.5193 7.06652 28.0377 7.88467 28.3609 8.79937C29.2075 11.1776 28.6017 13.8689 26.8191 15.6546L24.1228 18.3489L22.6298 16.8569V16.2308C22.6298 13.3129 21.216 10.5851 18.9211 8.87356L24.1217 3.66992ZM25.6137 25.6188V27.7277L24.1218 26.2357L22.6298 27.7277V25.6188H20.5209L22.0129 24.1268L20.5209 22.6348H22.6298V20.5249L24.1218 22.0169L25.6137 20.5259V22.6348H27.7226L26.2306 24.1278L27.7236 25.6188H25.6137ZM38.5862 13.4724C38.5862 14.4541 38.3728 15.3973 37.949 16.2825C36.8747 18.5652 34.5473 20.0399 32.0187 20.0399H28.2074V17.9351L28.6556 17.4889C30.7157 15.4237 31.6436 12.4916 31.231 9.66211H38.5862V13.4724ZM48.2475 24.1268L40.6524 16.5297C41.002 15.554 41.1809 14.5285 41.1809 13.4726V7.0676H30.4484C30.0043 6.13257 29.4036 5.28292 28.6546 4.53286L24.1217 0L16.5317 7.59406C15.552 7.24546 14.5275 7.0676 13.4705 7.0676H7.06252V17.8052C6.12749 18.2493 5.27682 18.849 4.52879 19.599L0 24.1268L7.59101 31.7178C7.24139 32.6965 7.06252 33.723 7.06252 34.7811V41.186H17.8042C18.2483 42.1231 18.8469 42.9737 19.5929 43.7197L24.1217 48.2536L31.7158 40.6595C32.6955 41.0081 33.72 41.186 34.777 41.186H41.1809V30.4504C42.121 30.0022 42.9727 29.4026 43.7197 28.6546L48.2475 24.1268Z" fill="#25B072"/>
<path fill-rule="evenodd" clip-rule="evenodd" d="M74.8403 28.505L70.0859 19.4678L64.2968 30.6231C65.0804 30.2165 66.2888 29.7602 67.9211 29.2581C69.5523 28.7571 71.6398 28.505 74.1817 28.505H74.8403ZM65.9911 11.6543H71.2161L84.3949 36.6013H79.0764L77.1474 32.9303H74.2285C72.7223 32.9303 71.2313 33.0563 69.7566 33.3063C68.2819 33.5584 66.9403 33.8633 65.7329 34.2241C64.5245 34.5849 63.5041 34.9619 62.6727 35.3532C61.8414 35.7465 61.3312 36.0677 61.1432 36.3177L61.0019 36.6013H55.9192L67.5918 14.7145L65.9911 11.6543Z" fill="white"/>
<path fill-rule="evenodd" clip-rule="evenodd" d="M93.3376 17.0669V31.7052H98.1672C100.512 31.7052 102.324 31.0629 103.607 29.7762C104.887 28.4895 105.529 26.6692 105.529 24.3154C105.529 21.9311 104.887 20.1271 103.607 18.9034C102.324 17.6797 100.512 17.0669 98.1672 17.0669H93.3376ZM83.0288 12.2188H98.1387C99.9589 12.2188 101.629 12.4769 103.151 12.9952C104.673 13.5136 105.976 14.2829 107.058 15.3023C108.14 16.3227 108.98 17.5769 109.577 19.0678C110.171 20.5588 110.47 22.2764 110.47 24.2217C110.47 26.1049 110.18 27.8144 109.6 29.3521C109.02 30.8899 108.187 32.1918 107.105 33.2589C106.022 34.3251 104.719 35.1493 103.198 35.7296C101.676 36.311 99.9894 36.6006 98.1387 36.6006H88.207V17.0667H85.1946L83.0288 12.2188Z" fill="white"/>
<path fill-rule="evenodd" clip-rule="evenodd" d="M129.675 28.505L124.92 19.4678L119.131 30.6231C119.915 30.2165 121.123 29.7602 122.755 29.2581C124.387 28.7571 126.474 28.505 129.016 28.505H129.675ZM120.825 11.6543H126.05L139.229 36.6013H133.911L131.982 32.9303H129.063C127.556 32.9303 126.066 33.0563 124.591 33.3063C123.116 33.5584 121.775 33.8633 120.567 34.2241C119.359 34.5849 118.338 34.9619 117.507 35.3532C116.676 35.7465 116.165 36.0677 115.977 36.3177L115.836 36.6013H110.753L122.426 14.7145L120.825 11.6543Z" fill="white"/>
<path fill-rule="evenodd" clip-rule="evenodd" d="M142.336 36.6006V12.2197H147.372V31.7059H160.316V36.6006H142.336Z" fill="white"/>
</svg>
